<svg xmlns="http://www.w3.org/2000/svg" width="96" height="96" viewBox="0 0 48 48" fill="none" stroke="#B4903A" stroke-width="1.8" stroke-linecap="round" stroke-linejoin="round">
<path d="M22 21 C21 28 21.5 34 22.5 40"></path><path d="M15 22 C17.5 28 20 33 23 39"></path><path d="M30 22 C27.5 28 25 33 22 39"></path><ellipse cx="22" cy="10.4" rx="2.4" ry="3.7" transform="rotate(0 22 15)"></ellipse><ellipse cx="22" cy="10.4" rx="2.4" ry="3.7" transform="rotate(72 22 15)"></ellipse><ellipse cx="22" cy="10.4" rx="2.4" ry="3.7" transform="rotate(144 22 15)"></ellipse><ellipse cx="22" cy="10.4" rx="2.4" ry="3.7" transform="rotate(216 22 15)"></ellipse><ellipse cx="22" cy="10.4" rx="2.4" ry="3.7" transform="rotate(288 22 15)"></ellipse><circle cx="22" cy="15" r="1.3" fill="#B4903A" stroke="none"></circle><ellipse cx="14.5" cy="16.4" rx="2.4" ry="3.7" transform="rotate(0 14.5 21)"></ellipse><ellipse cx="14.5" cy="16.4" rx="2.4" ry="3.7" transform="rotate(72 14.5 21)"></ellipse><ellipse cx="14.5" cy="16.4" rx="2.4" ry="3.7" transform="rotate(144 14.5 21)"></ellipse><ellipse cx="14.5" cy="16.4" rx="2.4" ry="3.7" transform="rotate(216 14.5 21)"></ellipse><ellipse cx="14.5" cy="16.4" rx="2.4" ry="3.7" transform="rotate(288 14.5 21)"></ellipse><circle cx="14.5" cy="21" r="1.3" fill="#B4903A" stroke="none"></circle><ellipse cx="30" cy="16.4" rx="2.4" ry="3.7" transform="rotate(0 30 21)"></ellipse><ellipse cx="30" cy="16.4" rx="2.4" ry="3.7" transform="rotate(72 30 21)"></ellipse><ellipse cx="30" cy="16.4" rx="2.4" ry="3.7" transform="rotate(144 30 21)"></ellipse><ellipse cx="30" cy="16.4" rx="2.4" ry="3.7" transform="rotate(216 30 21)"></ellipse><ellipse cx="30" cy="16.4" rx="2.4" ry="3.7" transform="rotate(288 30 21)"></ellipse><circle cx="30" cy="21" r="1.3" fill="#B4903A" stroke="none"></circle><path d="M0 0 C3.2 -3 5.6 -3 8 0 C5.6 3 3.2 3 0 0 Z" transform="translate(20 34) rotate(190)"></path><path d="M0 0 C3.2 -3 5.6 -3 8 0 C5.6 3 3.2 3 0 0 Z" transform="translate(25 33) rotate(-10)"></path>
</svg>