<svg xmlns="http://www.w3.org/2000/svg" width="96" height="96" viewBox="0 0 48 48" fill="none" stroke="#B4903A" stroke-width="1.8" stroke-linecap="round" stroke-linejoin="round">
<circle cx="17" cy="14" r="5"></circle><circle cx="31" cy="14" r="5"></circle><path d="M9.5 33 C9.5 26 12.8 22 17 22 C18.4 22 19.7 22.4 20.7 23.2"></path><path d="M38.5 33 C38.5 26 35.2 22 31 22 C29.6 22 28.3 22.4 27.3 23.2"></path><path d="M24 38 C24 38 16 33 16 27.5 C16 24.8 18 23 20.3 23 C21.8 23 23.2 23.9 24 25.2 C24.8 23.9 26.2 23 27.7 23 C30 23 32 24.8 32 27.5 C32 33 24 38 24 38 Z"></path>
</svg>