<svg xmlns="http://www.w3.org/2000/svg" width="96" height="96" viewBox="0 0 48 48" fill="none" stroke="#B4903A" stroke-width="1.8" stroke-linecap="round" stroke-linejoin="round">
<ellipse cx="24" cy="10.5" rx="3" ry="5.2" transform="rotate(0 24 18)"></ellipse><ellipse cx="24" cy="10.5" rx="3" ry="5.2" transform="rotate(45 24 18)"></ellipse><ellipse cx="24" cy="10.5" rx="3" ry="5.2" transform="rotate(90 24 18)"></ellipse><ellipse cx="24" cy="10.5" rx="3" ry="5.2" transform="rotate(135 24 18)"></ellipse><ellipse cx="24" cy="10.5" rx="3" ry="5.2" transform="rotate(180 24 18)"></ellipse><ellipse cx="24" cy="10.5" rx="3" ry="5.2" transform="rotate(225 24 18)"></ellipse><ellipse cx="24" cy="10.5" rx="3" ry="5.2" transform="rotate(270 24 18)"></ellipse><ellipse cx="24" cy="10.5" rx="3" ry="5.2" transform="rotate(315 24 18)"></ellipse><circle cx="24" cy="18" r="3.2"></circle><path d="M24 21 L24 40"></path><path d="M0 0 C3.6 -3.2 6.3 -3.2 9 0 C6.3 3.2 3.6 3.2 0 0 Z" transform="translate(24 32) rotate(200)"></path><path d="M0 0 C3.6 -3.2 6.3 -3.2 9 0 C6.3 3.2 3.6 3.2 0 0 Z" transform="translate(24 30) rotate(-20)"></path>
</svg>