<svg xmlns="http://www.w3.org/2000/svg" width="96" height="96" viewBox="0 0 48 48" fill="none" stroke="#B4903A" stroke-width="1.8" stroke-linecap="round" stroke-linejoin="round">
<path d="M24 24 C24 24 16.5 19 16.5 13 C16.5 10.3 18.6 8.2 21 8.2 C22.6 8.2 23.5 9.1 24 10.2 C24.5 9.1 25.4 8.2 27 8.2 C29.4 8.2 31.5 10.3 31.5 13 C31.5 19 24 24 24 24 Z"></path><path d="M8 38 L11.5 34.8"></path><path d="M8 38 L12.8 33.6 C13.7 32.6 15 32.1 16.4 32.1 L31 32.1 C34.3 32.1 37.4 30.6 39 27.6 C39.7 26.2 37.7 25.4 36.6 26.8 C35.5 28.2 33.9 29 31.8 29 L20.5 29"></path>
</svg>