<svg xmlns="http://www.w3.org/2000/svg" width="96" height="96" viewBox="0 0 48 48" fill="none" stroke="#B4903A" stroke-width="1.8" stroke-linecap="round" stroke-linejoin="round">
<path d="M5 32.5 L12.5 27 C13.6 26.2 15.1 26 16.3 26.7 L22 30"></path><path d="M5 32.5 L9.5 35.5 C10.7 36.3 12.3 36.1 13.4 35 L18 30.6"></path><path d="M7.8 30 L12.5 32.8"></path><path d="M43 16.5 L35.5 22 C34.4 22.8 32.9 23 31.7 22.3 L26 19"></path><path d="M43 16.5 L38.5 13.5 C37.3 12.7 35.7 12.9 34.6 14 L30 18.4"></path><path d="M40.2 19 L35.5 16.2"></path><path d="M31.7 22.3 C30.8 24.2 29.2 25.6 27 26.4"></path><path d="M29.4 20.9 C28.5 22.8 26.9 24.2 24.7 25"></path><path d="M27 19.5 C26.1 21.4 24.5 22.8 22.3 23.6"></path><path d="M22 30 C24 31.2 26.4 31 28 29.5"></path>
</svg>