<svg xmlns="http://www.w3.org/2000/svg" width="96" height="96" viewBox="0 0 48 48" fill="none" stroke="#B4903A" stroke-width="1.8" stroke-linecap="round" stroke-linejoin="round">
<path d="M24 20 C24 20 17.5 15.8 17.5 11 C17.5 8.7 19.4 7 21.5 7 C22.7 7 23.5 7.7 24 8.6 C24.5 7.7 25.3 7 26.5 7 C28.6 7 30.5 8.7 30.5 11 C30.5 15.8 24 20 24 20 Z"></path><path d="M22.5 25 C17 25.5 12 28 11 34 C10.6 36.4 11 38.8 13 40 L20.5 40"></path><path d="M22.5 25 C20.5 26 19.5 28 19.5 30.5 L19.5 33"></path><path d="M25.5 25 C31 25.5 36 28 37 34 C37.4 36.4 37 38.8 35 40 L27.5 40"></path><path d="M25.5 25 C27.5 26 28.5 28 28.5 30.5 L28.5 33"></path>
</svg>