<svg xmlns="http://www.w3.org/2000/svg" width="96" height="96" viewBox="0 0 48 48" fill="none" stroke="#B4903A" stroke-width="1.8" stroke-linecap="round" stroke-linejoin="round">
<path d="M11 39 C15 32 19 25 24 19.5"></path><path d="M0 0 C6.8 -5 11.9 -5 17 0 C11.9 5 6.8 5 0 0 Z" transform="translate(24 19.5) rotate(-33)"></path><path d="M24 19.5 L37 11"></path><path d="M0 0 C4.4 -3.6 7.7 -3.6 11 0 C7.7 3.6 4.4 3.6 0 0 Z" transform="translate(20 25.5) rotate(-24)"></path><path d="M20 25.5 L29.5 21.5"></path><path d="M0 0 C3.6 -3 6.3 -3 9 0 C6.3 3 3.6 3 0 0 Z" transform="translate(16.5 31) rotate(-150)"></path><path d="M16.5 31 L9.5 27"></path>
</svg>