<svg xmlns="http://www.w3.org/2000/svg" width="96" height="96" viewBox="0 0 48 48" fill="none" stroke="#B4903A" stroke-width="1.8" stroke-linecap="round" stroke-linejoin="round">
<path d="M10 39 C14 35 18 31 22 26 C26 21 30 16 35 11"></path><path d="M0 0 C2.6 -2.3 4.5 -2.3 6.5 0 C4.5 2.3 2.6 2.3 0 0 Z" transform="translate(20 29) rotate(-118)"></path><path d="M0 0 C2.6 -2.3 4.5 -2.3 6.5 0 C4.5 2.3 2.6 2.3 0 0 Z" transform="translate(23 25.5) rotate(-32)"></path><path d="M0 0 C2.6 -2.3 4.5 -2.3 6.5 0 C4.5 2.3 2.6 2.3 0 0 Z" transform="translate(24.5 22) rotate(-118)"></path><path d="M0 0 C2.6 -2.3 4.5 -2.3 6.5 0 C4.5 2.3 2.6 2.3 0 0 Z" transform="translate(27.5 18.5) rotate(-32)"></path><path d="M0 0 C2.6 -2.3 4.5 -2.3 6.5 0 C4.5 2.3 2.6 2.3 0 0 Z" transform="translate(29 15) rotate(-118)"></path><path d="M0 0 C2.6 -2.3 4.5 -2.3 6.5 0 C4.5 2.3 2.6 2.3 0 0 Z" transform="translate(31.5 12) rotate(-32)"></path><path d="M0 0 C2.8 -2.6 4.9 -2.6 7 0 C4.9 2.6 2.8 2.6 0 0 Z" transform="translate(35 11) rotate(-72)"></path>
</svg>