<svg xmlns="http://www.w3.org/2000/svg" width="96" height="96" viewBox="0 0 48 48" fill="none" stroke="#B4903A" stroke-width="1.8" stroke-linecap="round" stroke-linejoin="round">
<path d="M24 42 L24 19"></path><path d="M0 0 C5.2 -4.2 9.1 -4.2 13 0 C9.1 4.2 5.2 4.2 0 0 Z" transform="translate(24 18) rotate(-90)"></path><path d="M24 18 L24 7.5"></path><path d="M0 0 C5.6 -4.2 9.8 -4.2 14 0 C9.8 4.2 5.6 4.2 0 0 Z" transform="translate(24 20) rotate(207)"></path><path d="M24 20 L12.5 14.5"></path><path d="M0 0 C5.6 -4.2 9.8 -4.2 14 0 C9.8 4.2 5.6 4.2 0 0 Z" transform="translate(24 20) rotate(-27)"></path><path d="M24 20 L35.5 14.5"></path><path d="M0 0 C5.6 -4.2 9.8 -4.2 14 0 C9.8 4.2 5.6 4.2 0 0 Z" transform="translate(24 30) rotate(153)"></path><path d="M24 30 L12.5 35.5"></path><path d="M0 0 C5.6 -4.2 9.8 -4.2 14 0 C9.8 4.2 5.6 4.2 0 0 Z" transform="translate(24 30) rotate(27)"></path><path d="M24 30 L35.5 35.5"></path>
</svg>