<svg xmlns="http://www.w3.org/2000/svg" width="96" height="96" viewBox="0 0 48 48" fill="none" stroke="#B4903A" stroke-width="1.8" stroke-linecap="round" stroke-linejoin="round">
<mask id="sh"><rect width="48" height="48" fill="#fff"></rect><path d="M30 38.5 C30 38.5 20.5 32.5 20.5 25.5 C20.5 22 23 19.3 26.3 19.3 C28.1 19.3 29.3 20.4 30 21.7 C30.7 20.4 31.9 19.3 33.7 19.3 C37 19.3 39.5 22 39.5 25.5 C39.5 32.5 30 38.5 30 38.5 Z" fill="#000" stroke="#000" stroke-width="4.5" stroke-linejoin="round"></path></mask><path d="M24 6 L38 11 V21 C38 30 32 37.5 24 40 C16 37.5 10 30 10 21 V11 Z" mask="url(#sh)"></path><path d="M30 38.5 C30 38.5 20.5 32.5 20.5 25.5 C20.5 22 23 19.3 26.3 19.3 C28.1 19.3 29.3 20.4 30 21.7 C30.7 20.4 31.9 19.3 33.7 19.3 C37 19.3 39.5 22 39.5 25.5 C39.5 32.5 30 38.5 30 38.5 Z"></path>
</svg>