<svg xmlns="http://www.w3.org/2000/svg" width="96" height="96" viewBox="0 0 48 48" fill="none" stroke="#B4903A" stroke-width="1.8" stroke-linecap="round" stroke-linejoin="round">
<path d="M17.5 21.5 C17.5 16 19 12 21 10 C21.5 11.5 22 13 22.3 13 C22.8 11 23.4 9.5 24 9.5 C24.6 9.5 25.2 11 25.7 13 C26 13 26.5 11.5 27 10 C29 12 30.5 16 30.5 21.5 C30.5 24 28.3 25.5 26 25.5 L22 25.5 C19.7 25.5 17.5 24 17.5 21.5 Z"></path><path d="M22.3 13 C22 17 22 21 22.5 25.5"></path><path d="M25.7 13 C26 17 26 21 25.5 25.5"></path><path d="M24 25.5 L24 41"></path><path d="M0 0 C5.2 -4 9.1 -4 13 0 C9.1 4 5.2 4 0 0 Z" transform="translate(24 34) rotate(200)"></path><path d="M0 0 C5.2 -4 9.1 -4 13 0 C9.1 4 5.2 4 0 0 Z" transform="translate(24 34) rotate(-20)"></path>
</svg>